STARTFONT 2.1
FONT misc.zapf
SIZE 18 72 72
FONTBOUNDINGBOX 19 18 0 -3
STARTPROPERTIES 4
FONT_DESCENT 3
FONT_ASCENT 15
DEFAULT_CHAR 1
COPYRIGHT "Copyright (c) 1992 AT&T - All rights reserved."
ENDPROPERTIES
CHARS 32
STARTCHAR ch-1
ENCODING 1
SWIDTH 1055 0
DWIDTH 19 0
BBX 18 18 0 -3
BITMAP
000000
000000
000000
000000
600000
580000
480000
780000
0c0000
020000
03ffc0
67ff00
9ec000
906000
f02000
000000
000000
000000
ENDCHAR
STARTCHAR ch-2
ENCODING 2
SWIDTH 1055 0
DWIDTH 19 0
BBX 17 18 0 -3
BITMAP
000000
000000
000000
000000
200000
580380
880f00
783c00
0ff000
03e000
0ff000
7c7800
881e00
d80780
200180
000000
000000
000000
ENDCHAR
STARTCHAR ch-3
ENCODING 3
SWIDTH 1055 0
DWIDTH 19 0
BBX 18 18 0 -3
BITMAP
000000
000000
000000
000000
000000
f02000
906000
9ec000
67ff00
03ffc0
020000
0c0000
780000
480000
580000
600000
000000
000000
ENDCHAR
STARTCHAR ch-4
ENCODING 4
SWIDTH 1055 0
DWIDTH 19 0
BBX 18 18 0 -3
BITMAP
000000
000000
000000
000000
700380
900cc0
903180
f0c600
3f1800
0f6000
0fe000
7f1800
f0c600
983180
d00cc0
600300
000000
000000
ENDCHAR
STARTCHAR ch-6
ENCODING 6
SWIDTH 833 0
DWIDTH 15 0
BBX 14 18 0 -3
BITMAP
020000
1cb800
207c00
40f800
40f800
818000
838400
830400
870400
8e0400
4c0800
5c0800
1e1000
1e6000
1e0000
1c0000
200000
200000
ENDCHAR
STARTCHAR ch-9
ENCODING 9
SWIDTH 1000 0
DWIDTH 18 0
BBX 17 18 0 -3
BITMAP
000000
000000
000000
ffff80
c00180
800280
88c480
87f080
83e080
83f080
89c880
900480
a00080
ffff80
000000
000000
000000
000000
ENDCHAR
STARTCHAR ch-13
ENCODING 13
SWIDTH 1055 0
DWIDTH 19 0
BBX 18 18 0 -3
BITMAP
000000
000000
000000
003800
03f000
04e000
19e000
139980
2787c0
2f0040
2f8140
180140
700040
7ffe40
e013c0
000000
000000
000000
ENDCHAR
STARTCHAR ch-14
ENCODING 14
SWIDTH 1000 0
DWIDTH 18 0
BBX 17 18 0 -3
BITMAP
000000
000000
000000
000000
2e0000
558000
b44000
b73000
08c800
6c2400
320e00
088400
066900
019180
007f80
000000
000000
000000
ENDCHAR
STARTCHAR ch-91
ENCODING 91
SWIDTH 611 0
DWIDTH 11 0
BBX 10 18 0 -3
BITMAP
000000
000000
000000
000000
078000
1c0000
300000
600000
7e0000
ff0000
ff8000
ff8000
ff8000
ff8000
ff8000
7f0000
1e0000
000000
ENDCHAR
STARTCHAR ch-92
ENCODING 92
SWIDTH 611 0
DWIDTH 11 0
BBX 10 18 0 -3
BITMAP
000000
000000
000000
000000
1e0000
7f0000
7f8000
ff8000
ff8000
ff8000
ff8000
7f8000
3f0000
030000
060000
1c0000
f00000
000000
ENDCHAR
STARTCHAR ch-93
ENCODING 93
SWIDTH 1000 0
DWIDTH 18 0
BBX 17 18 0 -3
BITMAP
000000
000000
000000
000000
070780
1c1c00
303000
606000
7e7e00
ffff00
ffff80
ffff80
ffff80
ffff80
ffff80
7f7f00
1c1e00
000000
ENDCHAR
STARTCHAR ch-94
ENCODING 94
SWIDTH 1000 0
DWIDTH 18 0
BBX 17 18 0 -3
BITMAP
000000
000000
000000
000000
1e1e00
7f7f00
7fff80
ffff80
ffff80
ffff80
ffff80
7fff80
3f3f00
030300
060600
1c1c00
f07000
000000
ENDCHAR
STARTCHAR ch-128
ENCODING 128
SWIDTH 833 0
DWIDTH 15 0
BBX 14 18 0 -3
BITMAP
000000
000000
0fc000
187000
211800
430800
c70400
810400
810400
810400
810400
c10400
410800
611800
383000
0fc000
000000
000000
ENDCHAR
STARTCHAR ch-129
ENCODING 129
SWIDTH 833 0
DWIDTH 15 0
BBX 14 18 0 -3
BITMAP
000000
000000
0fc000
187000
279800
4fc800
ccc400
80c400
80c400
818400
830400
c40400
4fc800
679800
303000
0fc000
000000
000000
ENDCHAR
STARTCHAR ch-130
ENCODING 130
SWIDTH 833 0
DWIDTH 15 0
BBX 14 18 0 -3
BITMAP
000000
000000
0fc000
187000
239800
46c800
c44400
80c400
838400
81c400
804400
cc4400
47c800
239800
383000
0fc000
000000
000000
ENDCHAR
STARTCHAR ch-131
ENCODING 131
SWIDTH 833 0
DWIDTH 15 0
BBX 14 18 0 -3
BITMAP
000000
000000
0fc000
186000
211000
438800
c38c00
858400
8d8400
898400
9fc400
cf8c00
418800
611800
383000
0fc000
000000
000000
ENDCHAR
STARTCHAR ch-132
ENCODING 132
SWIDTH 833 0
DWIDTH 15 0
BBX 14 18 0 -3
BITMAP
000000
000000
0fc000
187000
201800
4f8800
cc0400
8f8400
8fc400
844400
804400
c04400
4cc800
279800
383000
0fc000
000000
000000
ENDCHAR
STARTCHAR ch-133
ENCODING 133
SWIDTH 833 0
DWIDTH 15 0
BBX 14 18 0 -3
BITMAP
000000
000000
0fc000
187000
239800
46c800
cc4400
880400
8f8400
8cc400
884400
ccc400
4cc800
679800
303000
0fc000
000000
000000
ENDCHAR
STARTCHAR ch-134
ENCODING 134
SWIDTH 833 0
DWIDTH 15 0
BBX 14 18 0 -3
BITMAP
000000
000000
0fc000
187000
279800
4fc800
c0c400
808400
818400
830400
830400
c20400
460800
621800
303000
0fc000
000000
000000
ENDCHAR
STARTCHAR ch-135
ENCODING 135
SWIDTH 833 0
DWIDTH 15 0
BBX 14 18 0 -3
BITMAP
000000
000000
0fc000
187000
239800
44c800
ccc400
8cc400
878400
86c400
8c4400
cc4400
4cc800
639800
383000
0fc000
000000
000000
ENDCHAR
STARTCHAR ch-136
ENCODING 136
SWIDTH 833 0
DWIDTH 15 0
BBX 14 18 0 -3
BITMAP
000000
000000
0fc000
187000
239800
44c800
cc4400
8c4400
8cc400
87c400
804400
c0c400
448800
671800
303000
0fc000
000000
000000
ENDCHAR
STARTCHAR ch-137
ENCODING 137
SWIDTH 833 0
DWIDTH 15 0
BBX 14 18 0 -3
BITMAP
000000
000000
0fc000
187000
219800
7be800
da2c00
8a2400
8a3400
8a3400
8a2400
ca2400
4b6800
21d800
183000
0fc000
000000
000000
ENDCHAR
STARTCHAR ch-138
ENCODING 138
SWIDTH 833 0
DWIDTH 15 0
BBX 14 18 0 -3
BITMAP
000000
000000
07c000
1fe000
3ef000
7cf800
70fc00
fcfc00
fcfc00
fcfc00
fcfc00
fcfc00
7cf800
3cf800
3ff000
0fc000
000000
000000
ENDCHAR
STARTCHAR ch-139
ENCODING 139
SWIDTH 833 0
DWIDTH 15 0
BBX 14 18 0 -3
BITMAP
000000
000000
078000
1fe000
387000
703800
631c00
f71c00
ff3c00
fe7c00
f8fc00
71fc00
601800
303800
1ff000
0fc000
000000
000000
ENDCHAR
STARTCHAR ch-140
ENCODING 140
SWIDTH 833 0
DWIDTH 15 0
BBX 14 18 0 -3
BITMAP
000000
000000
078000
1fe000
387000
703800
739c00
ff3c00
fc3c00
fe3c00
ff9c00
679c00
701800
387800
1ff000
0fc000
000000
000000
ENDCHAR
STARTCHAR ch-141
ENCODING 141
SWIDTH 833 0
DWIDTH 15 0
BBX 14 18 0 -3
BITMAP
000000
000000
078000
1fe000
3e7000
7c7800
787c00
f27c00
f67c00
e67c00
e01c00
601c00
7e7800
3e7800
1ff000
0fc000
000000
000000
ENDCHAR
STARTCHAR ch-142
ENCODING 142
SWIDTH 833 0
DWIDTH 15 0
BBX 14 18 0 -3
BITMAP
000000
000000
078000
1fe000
303000
703800
77fc00
f07c00
f01c00
ff9c00
ff9c00
739c00
703800
387800
1ff000
0fc000
000000
000000
ENDCHAR
STARTCHAR ch-143
ENCODING 143
SWIDTH 833 0
DWIDTH 15 0
BBX 14 18 0 -3
BITMAP
000000
000000
07c000
1fe000
3c7000
703800
73bc00
e7fc00
e03c00
e31c00
e79c00
639c00
703800
387800
1ff000
0fc000
000000
000000
ENDCHAR
STARTCHAR ch-144
ENCODING 144
SWIDTH 833 0
DWIDTH 15 0
BBX 14 18 0 -3
BITMAP
000000
000000
078000
1fe000
3ff000
701800
7f3c00
ff3c00
fe7c00
fcfc00
fcfc00
f8fc00
79f800
39f800
1ff000
0fc000
000000
000000
ENDCHAR
STARTCHAR ch-145
ENCODING 145
SWIDTH 833 0
DWIDTH 15 0
BBX 14 18 0 -3
BITMAP
000000
000000
07c000
1fe000
387000
703800
731c00
e39c00
f03c00
f11c00
e39c00
639c00
703800
387800
1ff000
0fc000
000000
000000
ENDCHAR
STARTCHAR ch-146
ENCODING 146
SWIDTH 833 0
DWIDTH 15 0
BBX 14 18 0 -3
BITMAP
000000
000000
07c000
1fe000
3c7000
703800
739c00
f39c00
f31c00
f81c00
ff9c00
f79c00
703800
387800
1ff000
0fc000
000000
000000
ENDCHAR
STARTCHAR ch-147
ENCODING 147
SWIDTH 833 0
DWIDTH 15 0
BBX 14 18 0 -3
BITMAP
000000
000000
07c000
1fe000
3f3000
661800
44cc00
e4cc00
edec00
e5ec00
eccc00
e4cc00
6e1800
3f3800
3ff000
0fc000
000000
000000
ENDCHAR
ENDFONT
